#!OML:ASF F:\VICON\USERDATA\INSTALL\rory3\rory3.ASF
:FULLY-SPECIFIED
:DEGREES
846
root 0.738959 15.6477 3.05754 7.06127 -40.5582 13.2456
lowerback -2.128 5.8855 6.62716
upperback 4.78454 7.59911 -1.63933
thorax 7.33331 4.14533 -4.69883
lowerneck 1.31971 -10.2659 -12.6323
upperneck 47.2346 -19.7632 8.95847
head 21.6363 -9.41638 3.58866
rclavicle 2.14687e-014 1.43125e-014
rhumerus -21.5872 17.7329 -95.4101
rradius 19.1428
rwrist 19.3417
rhand -27.6097 -55.1105
rfingers 7.12502
rthumb -1.00895 -85.0879
lclavicle 2.14687e-014 1.43125e-014
lhumerus -44.6928 -84.7653 120.875
lradius 83.5407
lwrist 26.4226
lhand 3.25239 -21.2108
lfingers 7.12502
lthumb 28.7017 6.60391
rfemur -32.1242 -1.92698 -4.41001
rtibia 76.3963
rfoot -3.68876 -10.7775
rtoes -30.5879
lfemur -51.3972 -21.414 -29.5156
ltibia 57.9493
lfoot -20.7234 -2.91866
ltoes 20.7748
847
root 0.73971 15.6479 3.05741 7.07796 -40.5795 13.2988
lowerback -2.24181 5.896 6.56408
upperback 4.80955 7.60884 -1.63426
thorax 7.41737 4.14873 -4.64442
lowerneck 1.31314 -10.2679 -12.6195
upperneck 47.1762 -19.7276 8.91877
head 21.5613 -9.40143 3.56981
rclavicle -3.97569e-014 -1.11319e-014
rhumerus -21.5018 17.7987 -95.3712
rradius 19.0468
rwrist 19.2564
rhand -27.7933 -55.1563
rfingers 7.12502
rthumb -1.18624 -85.1327
lclavicle -3.97569e-014 -1.11319e-014
lhumerus -44.0463 -84.8082 120.255
lradius 83.5386
lwrist 26.3579
lhand 3.49778 -21.306
lfingers 7.12502
lthumb 28.9361 6.46877
rfemur -32.1866 -1.98526 -4.46804
rtibia 76.3964
rfoot -3.58235 -10.7481
rtoes -31.314
lfemur -51.4441 -21.4002 -29.5668
ltibia 57.9656
lfoot -20.7076 -2.92057
ltoes 20.8472
848
root 0.740962 15.6494 3.05473 7.18771 -40.5862 13.2254
lowerback -2.33098 5.90713 6.64169
upperback 4.80879 7.61363 -1.62687
thorax 7.47939 4.15614 -4.66888
lowerneck 1.33964 -10.2425 -12.6591
upperneck 47.1038 -19.7025 9.00364
head 21.515 -9.39322 3.62623
rclavicle -3.10104e-014 4.77083e-014
rhumerus -21.4434 17.8605 -95.3758
rradius 18.9711
rwrist 19.1249
rhand -28.0068 -55.1082
rfingers 7.12502
rthumb -1.39248 -85.0834
lclavicle -3.10104e-014 4.77083e-014
lhumerus -44.116 -84.8935 120.331
lradius 83.5895
lwrist 26.4191
lhand 3.25836 -21.0354
lfingers 7.12502
lthumb 28.7074 6.77828
rfemur -32.2717 -2.01217 -4.39189
rtibia 76.3672
rfoot -3.54215 -10.7912
rtoes -30.8761
lfemur -51.5266 -21.3679 -29.4947
ltibia 57.9614
lfoot -20.6276 -2.9399
ltoes 21.1565
849
root 0.74081 15.6529 3.05886 7.21137 -40.6066 13.1703
lowerback -2.36179 5.90192 6.72773
upperback 4.78451 7.59987 -1.61647
thorax 7.48022 4.15295 -4.70473
lowerneck 1.45285 -10.173 -12.7803
upperneck 47.0641 -19.6308 9.12138
head 21.4846 -9.38525 3.73166
rclavicle -4.6118e-014 1.59028e-014
rhumerus -21.5575 17.9004 -95.4021
rradius 19.0147
rwrist 19.1156
rhand -28.0137 -55.1747
rfingers 7.12502
rthumb -1.39917 -85.1498
lclavicle -4.6118e-014 1.59028e-014
lhumerus -45.5994 -84.8878 121.818
lradius 83.6469
lwrist 26.5977
lhand 2.15452 -20.6795
lfingers 7.12502
lthumb 27.6524 7.30806
rfemur -32.2168 -1.99422 -4.34692
rtibia 76.2822
rfoot -3.51645 -10.8018
rtoes -30.0783
lfemur -51.482 -21.3786 -29.4528
ltibia 57.928
lfoot -20.611 -2.97057
ltoes 21.2174
850
root 0.739025 15.6579 3.07266 7.13118 -40.6926 13.2796
lowerback -2.5238 5.92001 6.71693
upperback 4.77368 7.61689 -1.64047
thorax 7.56673 4.16306 -4.70545
lowerneck 1.67024 -10.1066 -12.9161
upperneck 47.012 -19.5633 9.22829
head 21.4092 -9.38728 3.83949
rclavicle 3.02153e-014 -2.06736e-014
rhumerus -21.7472 17.9111 -95.3992
rradius 19.0589
rwrist 19.2567
rhand -28.1274 -55.0526
rfingers 7.12502
rthumb -1.50892 -85.027
lclavicle 3.02153e-014 -2.06736e-014
lhumerus -46.9357 -84.7992 123.176
lradius 83.6423
lwrist 26.7305
lhand 1.5487 -20.6108
lfingers 7.12502
lthumb 27.0729 7.46823
rfemur -32.0886 -1.99273 -4.50531
rtibia 76.1591
rfoot -3.48071 -10.6841
rtoes -31.1481
lfemur -51.3703 -21.4165 -29.5878
ltibia 57.8905
lfoot -20.6632 -2.99741
ltoes 21.2874
